<svg width="32" height="32" viewBox="0 0 32 32" fill="none" xmlns="http://www.w3.org/2000/svg">
  <rect width="32" height="32" rx="8" fill="#0a0a0a"/>
  <rect x="2" y="2" width="28" height="28" rx="6" fill="url(#gradient)" opacity="0.9"/>
  <path d="M10 8h12a2 2 0 0 1 2 2v12a2 2 0 0 1-2 2H10a2 2 0 0 1-2-2V10a2 2 0 0 1 2-2z" fill="none" stroke="url(#gradient)" stroke-width="1.5" stroke-linecap="round" stroke-linejoin="round"/>
  <path d="M10 8v6h6" fill="none" stroke="url(#gradient)" stroke-width="1.5" stroke-linecap="round" stroke-linejoin="round"/>
  <line x1="12" y1="15" x2="20" y2="15" stroke="url(#gradient)" stroke-width="1.5" stroke-linecap="round"/>
  <line x1="12" y1="19" x2="18" y2="19" stroke="url(#gradient)" stroke-width="1.5" stroke-linecap="round"/>
  <defs>
    <linearGradient id="gradient" x1="0" y1="0" x2="32" y2="32" gradientUnits="userSpaceOnUse">
      <stop offset="0%" stop-color="#14b8a6"/>
      <stop offset="50%" stop-color="#06b6d4"/>
      <stop offset="100%" stop-color="#3b82f6"/>
    </linearGradient>
  </defs>
</svg>

