<svg width="192" height="192" viewBox="0 0 192 192" fill="none" xmlns="http://www.w3.org/2000/svg">
  <rect width="192" height="192" rx="40" fill="#0a0a0a"/>
  <rect x="12" y="12" width="168" height="168" rx="36" fill="url(#gradient)" opacity="0.15"/>
  <path d="M60 48h72a6 6 0 0 1 6 6v72a6 6 0 0 1-6 6H60a6 6 0 0 1-6-6V54a6 6 0 0 1 6-6z" fill="none" stroke="url(#gradient)" stroke-width="8" stroke-linecap="round" stroke-linejoin="round"/>
  <path d="M60 48v36h36" fill="none" stroke="url(#gradient)" stroke-width="8" stroke-linecap="round" stroke-linejoin="round"/>
  <line x1="72" y1="90" x2="120" y2="90" stroke="url(#gradient)" stroke-width="8" stroke-linecap="round"/>
  <line x1="72" y1="114" x2="108" y2="114" stroke="url(#gradient)" stroke-width="8" stroke-linecap="round"/>
  <defs>
    <linearGradient id="gradient" x1="0" y1="0" x2="192" y2="192" gradientUnits="userSpaceOnUse">
      <stop offset="0%" stop-color="#14b8a6"/>
      <stop offset="50%" stop-color="#06b6d4"/>
      <stop offset="100%" stop-color="#3b82f6"/>
    </linearGradient>
  </defs>
</svg>

